# xmcd
#
# Track frame offsets:
#	150
#	15400
#	30495
#	44600
#	60380
#	75320
#	93935
#	112945
#	128225
#	140238
#
# Disc length: 2084 seconds
#
# Revision: 6
# Processed by: cddbd v1.4PL0 Copyright (c) Steve Scherf et al.
# Submitted via: CDmax 2.0
#
DISCID=7508220a
DTITLE=Suzy Bogguss - Something Up My Sleeve
DYEAR=1993
DGENRE=Country
TTITLE0=Diamonds and Tears
TTITLE1=Just Like the Weather
TTITLE2=I Keep Comin' Back To You
TTITLE3=You Never Will
TTITLE4=You'd Be the One
TTITLE5=Hey Cinderella
TTITLE6=Souvenirs
TTITLE7=You Wouldn't Say That To a Stranger
TTITLE8=No Green Eyes
TTITLE9=Something Up My Sleeve
EXTD=LABEL =Liberty Records\nID =D111037\nUPC =none\nCOPYRIGHT =1993
EXTT0=
EXTT1=
EXTT2=
EXTT3=
EXTT4=
EXTT5=
EXTT6=
EXTT7=
EXTT8=
EXTT9=Duet with Billy Dean
PLAYORDER=
